<?xml version="1.0" encoding="UTF-8" standalone="no"?>
<!-- Created with Inkscape (http://www.inkscape.org/) -->

<svg
   width="100mm"
   height="100mm"
   viewBox="0 0 100 100"
   version="1.1"
   id="svg1"
   xml:space="preserve"
   inkscape:export-filename="logo.png"
   inkscape:export-xdpi="127"
   inkscape:export-ydpi="127"
   inkscape:version="1.4 (e7c3feb100, 2024-10-09)"
   sodipodi:docname="logo.svg"
   xmlns:inkscape="http://www.inkscape.org/namespaces/inkscape"
   xmlns:sodipodi="http://sodipodi.sourceforge.net/DTD/sodipodi-0.dtd"
   xmlns="http://www.w3.org/2000/svg"
   xmlns:svg="http://www.w3.org/2000/svg"><sodipodi:namedview
     id="namedview1"
     pagecolor="#ffffff"
     bordercolor="#000000"
     borderopacity="0.25"
     inkscape:showpageshadow="2"
     inkscape:pageopacity="0.0"
     inkscape:pagecheckerboard="0"
     inkscape:deskcolor="#d1d1d1"
     inkscape:document-units="mm"
     inkscape:zoom="1.4307099"
     inkscape:cx="159.36145"
     inkscape:cy="265.25294"
     inkscape:window-width="1920"
     inkscape:window-height="1014"
     inkscape:window-x="0"
     inkscape:window-y="0"
     inkscape:window-maximized="1"
     inkscape:current-layer="layer1" /><defs
     id="defs1" /><g
     inkscape:label="Layer 1"
     inkscape:groupmode="layer"
     id="layer1"><path
       style="fill:#fca393;fill-opacity:1;stroke-width:1.52466"
       d="m 30.723212,87.562662 c -0.148198,-0.239846 1.008477,-1.754057 2.570456,-3.364931 1.561994,-1.610876 2.959262,-3.404161 3.105066,-3.985076 0.145759,-0.580899 0.2024,-2.869428 0.125786,-5.085613 L 36.385164,71.097615 35.174958,69.829516 C 34.509333,69.132072 32.772184,67.675401 31.3146,66.59249 29.857031,65.509578 27.406353,64.057726 25.868678,63.36615 24.330987,62.674591 22.165225,61.875252 21.055875,61.58988 L 19.038858,61.071004 V 58.89832 56.725619 l 22.086277,-0.104285 22.08628,-0.104285 v 8.87829 8.878289 h -3.57622 c -3.007137,0 -3.745367,0.133104 -4.639128,0.836083 -0.819068,0.644296 -1.062908,1.191973 -1.062908,2.387421 0,0.853235 0.106122,1.828032 0.235942,2.166204 0.129749,0.338172 2.04164,2.105524 4.248614,3.927459 2.206975,1.821949 3.94641,3.511559 3.865419,3.754713 -0.10261,0.307891 -4.874338,0.474141 -15.718878,0.54766 -10.83008,0.07349 -15.653647,-0.02729 -15.84109,-0.330487 z M 65.417506,71.360575 c -0.115722,-0.301549 -0.160198,-3.445481 -0.0988,-6.986511 l 0.111448,-6.438238 7.765493,-0.109622 7.765495,-0.109623 v 2.546839 2.546825 l -1.71446,1.640468 c -0.942948,0.902254 -2.557177,2.206045 -3.587167,2.8973 -1.030007,0.691254 -3.299143,1.876854 -5.042526,2.634675 -1.743399,0.757806 -3.579162,1.501175 -4.079468,1.651934 -0.59985,0.180749 -0.981293,0.08736 -1.120022,-0.274166 z M 32.956273,48.241503 c 0,-3.698103 -0.13539,-5.093999 -0.504239,-5.199765 -0.277352,-0.07959 -1.377691,-0.456152 -2.445219,-0.836984 -1.067528,-0.380816 -2.699428,-1.270888 -3.626427,-1.977939 -1.029992,-0.785601 -2.157759,-2.209505 -2.899877,-3.661341 -1.074511,-2.102139 -1.213317,-2.773909 -1.205038,-5.832015 0.0076,-3.044323 0.148503,-3.70943 1.177259,-5.581024 0.752562,-1.369169 1.818717,-2.55591 2.997912,-3.336968 1.006511,-0.666693 2.733443,-1.480439 3.837641,-1.80835 1.104196,-0.327911 2.331357,-0.596207 2.727023,-0.596207 0.395667,0 0.927717,-0.389249 1.182336,-0.865006 0.254605,-0.475759 1.206746,-1.671954 2.115846,-2.658217 0.909114,-0.986262 2.562802,-2.254269 3.674866,-2.817803 1.69935,-0.861118 2.538605,-1.017671 5.260415,-0.981247 1.78118,0.02379 3.873852,0.280875 4.650412,0.571218 0.776544,0.290343 2.009179,0.84735 2.739176,1.237803 l 1.327275,0.709916 2.976217,-1.027245 c 2.068184,-0.713851 3.817056,-1.025798 5.732255,-1.022475 1.515842,0.003 3.66372,0.246662 4.77307,0.542265 1.10935,0.295618 2.561598,0.822605 3.227223,1.171083 0.66561,0.348463 1.941973,1.264531 2.836359,2.035693 0.894387,0.771163 2.124414,2.386887 2.733398,3.590507 0.608968,1.203635 1.299689,3.356485 1.5349,4.784124 0.235227,1.427655 0.324678,3.501785 0.198771,4.609168 -0.125938,1.107398 -0.774151,3.120954 -1.440523,4.474571 -0.666388,1.353617 -1.927594,3.274534 -2.802694,4.268679 -0.875099,0.994161 -2.689883,2.393229 -4.032874,3.109031 -1.34299,0.715801 -3.216549,1.433464 -4.163492,1.594804 l -1.721687,0.293347 -0.112823,5.132786 -0.112823,5.132785 H 48.273518 32.956273 Z"
       id="path1"
       sodipodi:nodetypes="csccccssscccccccscscscccccccccccssssccscsssccsssssccsscscssssscsssscccccs" /></g></svg>
